<mxfile host="app.diagrams.net" modified="2023-11-09T16:47:13.478Z" agent="Mozilla/5.0 (Windows NT 10.0; WOW64) AppleWebKit/537.36 (KHTML, like Gecko) Chrome/109.0.0.0 Safari/537.36" etag="qzm2nOKDYTwUVmvkg7Yy" version="22.1.0" type="device">
  <diagram id="C5RBs43oDa-KdzZeNtuy" name="Page-1">
    <mxGraphModel dx="1006" dy="566" grid="1" gridSize="10" guides="1" tooltips="1" connect="1" arrows="1" fold="1" page="1" pageScale="1" pageWidth="827" pageHeight="1169" math="0" shadow="0">
      <root>
        <mxCell id="WIyWlLk6GJQsqaUBKTNV-0" />
        <mxCell id="WIyWlLk6GJQsqaUBKTNV-1" parent="WIyWlLk6GJQsqaUBKTNV-0" />
        <mxCell id="_Q8CtAEHd_2Q4HWSlG2P-2" value="" style="edgeStyle=orthogonalEdgeStyle;rounded=0;orthogonalLoop=1;jettySize=auto;html=1;" edge="1" parent="WIyWlLk6GJQsqaUBKTNV-1" source="_Q8CtAEHd_2Q4HWSlG2P-0" target="_Q8CtAEHd_2Q4HWSlG2P-1">
          <mxGeometry relative="1" as="geometry" />
        </mxCell>
        <mxCell id="_Q8CtAEHd_2Q4HWSlG2P-0" value="Start" style="ellipse;whiteSpace=wrap;html=1;" vertex="1" parent="WIyWlLk6GJQsqaUBKTNV-1">
          <mxGeometry x="354" width="120" height="80" as="geometry" />
        </mxCell>
        <mxCell id="_Q8CtAEHd_2Q4HWSlG2P-4" value="" style="edgeStyle=orthogonalEdgeStyle;rounded=0;orthogonalLoop=1;jettySize=auto;html=1;" edge="1" parent="WIyWlLk6GJQsqaUBKTNV-1" source="_Q8CtAEHd_2Q4HWSlG2P-1">
          <mxGeometry relative="1" as="geometry">
            <mxPoint x="414" y="220" as="targetPoint" />
          </mxGeometry>
        </mxCell>
        <mxCell id="_Q8CtAEHd_2Q4HWSlG2P-1" value="iOld&lt;br&gt;INew&lt;br&gt;eNum" style="shape=parallelogram;perimeter=parallelogramPerimeter;whiteSpace=wrap;html=1;fixedSize=1;" vertex="1" parent="WIyWlLk6GJQsqaUBKTNV-1">
          <mxGeometry x="354" y="120" width="120" height="60" as="geometry" />
        </mxCell>
        <mxCell id="_Q8CtAEHd_2Q4HWSlG2P-7" value="true" style="edgeStyle=orthogonalEdgeStyle;rounded=0;orthogonalLoop=1;jettySize=auto;html=1;exitX=1;exitY=0.5;exitDx=0;exitDy=0;entryX=1;entryY=0.5;entryDx=0;entryDy=0;" edge="1" parent="WIyWlLk6GJQsqaUBKTNV-1" source="_Q8CtAEHd_2Q4HWSlG2P-5" target="_Q8CtAEHd_2Q4HWSlG2P-1">
          <mxGeometry relative="1" as="geometry">
            <mxPoint x="600" y="130" as="targetPoint" />
            <Array as="points">
              <mxPoint x="611" y="260" />
              <mxPoint x="611" y="150" />
            </Array>
          </mxGeometry>
        </mxCell>
        <mxCell id="_Q8CtAEHd_2Q4HWSlG2P-12" value="false" style="edgeStyle=orthogonalEdgeStyle;rounded=0;orthogonalLoop=1;jettySize=auto;html=1;" edge="1" parent="WIyWlLk6GJQsqaUBKTNV-1" source="_Q8CtAEHd_2Q4HWSlG2P-5" target="_Q8CtAEHd_2Q4HWSlG2P-11">
          <mxGeometry relative="1" as="geometry" />
        </mxCell>
        <mxCell id="_Q8CtAEHd_2Q4HWSlG2P-5" value="INew &amp;lt; iOld" style="rhombus;whiteSpace=wrap;html=1;" vertex="1" parent="WIyWlLk6GJQsqaUBKTNV-1">
          <mxGeometry x="310" y="220" width="210" height="80" as="geometry" />
        </mxCell>
        <mxCell id="_Q8CtAEHd_2Q4HWSlG2P-14" value="" style="edgeStyle=orthogonalEdgeStyle;rounded=0;orthogonalLoop=1;jettySize=auto;html=1;" edge="1" parent="WIyWlLk6GJQsqaUBKTNV-1" source="_Q8CtAEHd_2Q4HWSlG2P-11" target="_Q8CtAEHd_2Q4HWSlG2P-13">
          <mxGeometry relative="1" as="geometry" />
        </mxCell>
        <mxCell id="_Q8CtAEHd_2Q4HWSlG2P-11" value="eNum=iNew=IOld" style="rounded=0;whiteSpace=wrap;html=1;" vertex="1" parent="WIyWlLk6GJQsqaUBKTNV-1">
          <mxGeometry x="354" y="350" width="120" height="60" as="geometry" />
        </mxCell>
        <mxCell id="_Q8CtAEHd_2Q4HWSlG2P-16" value="true" style="edgeStyle=orthogonalEdgeStyle;rounded=0;orthogonalLoop=1;jettySize=auto;html=1;exitX=0.5;exitY=1;exitDx=0;exitDy=0;entryX=0.5;entryY=0;entryDx=0;entryDy=0;" edge="1" parent="WIyWlLk6GJQsqaUBKTNV-1" source="_Q8CtAEHd_2Q4HWSlG2P-13" target="_Q8CtAEHd_2Q4HWSlG2P-15">
          <mxGeometry relative="1" as="geometry" />
        </mxCell>
        <mxCell id="_Q8CtAEHd_2Q4HWSlG2P-28" value="false" style="edgeStyle=orthogonalEdgeStyle;rounded=0;orthogonalLoop=1;jettySize=auto;html=1;" edge="1" parent="WIyWlLk6GJQsqaUBKTNV-1" source="_Q8CtAEHd_2Q4HWSlG2P-13" target="_Q8CtAEHd_2Q4HWSlG2P-37">
          <mxGeometry relative="1" as="geometry">
            <mxPoint x="520" y="500" as="targetPoint" />
          </mxGeometry>
        </mxCell>
        <mxCell id="_Q8CtAEHd_2Q4HWSlG2P-13" value="eNum&amp;lt;250" style="rhombus;whiteSpace=wrap;html=1;" vertex="1" parent="WIyWlLk6GJQsqaUBKTNV-1">
          <mxGeometry x="349" y="460" width="130" height="80" as="geometry" />
        </mxCell>
        <mxCell id="_Q8CtAEHd_2Q4HWSlG2P-15" value="eNum&amp;lt;150" style="rhombus;whiteSpace=wrap;html=1;" vertex="1" parent="WIyWlLk6GJQsqaUBKTNV-1">
          <mxGeometry x="351" y="585" width="126" height="80" as="geometry" />
        </mxCell>
        <mxCell id="_Q8CtAEHd_2Q4HWSlG2P-35" style="edgeStyle=orthogonalEdgeStyle;rounded=0;orthogonalLoop=1;jettySize=auto;html=1;exitX=1;exitY=0.5;exitDx=0;exitDy=0;entryX=1;entryY=0.5;entryDx=0;entryDy=0;" edge="1" parent="WIyWlLk6GJQsqaUBKTNV-1" target="_Q8CtAEHd_2Q4HWSlG2P-44">
          <mxGeometry relative="1" as="geometry">
            <mxPoint x="740" y="1020" as="targetPoint" />
            <mxPoint x="640" y="500" as="sourcePoint" />
            <Array as="points">
              <mxPoint x="760" y="500" />
              <mxPoint x="760" y="1130" />
            </Array>
          </mxGeometry>
        </mxCell>
        <mxCell id="_Q8CtAEHd_2Q4HWSlG2P-20" value="true" style="edgeStyle=orthogonalEdgeStyle;rounded=0;orthogonalLoop=1;jettySize=auto;html=1;" edge="1" parent="WIyWlLk6GJQsqaUBKTNV-1" source="_Q8CtAEHd_2Q4HWSlG2P-18" target="_Q8CtAEHd_2Q4HWSlG2P-19">
          <mxGeometry relative="1" as="geometry" />
        </mxCell>
        <mxCell id="_Q8CtAEHd_2Q4HWSlG2P-29" value="false" style="edgeStyle=orthogonalEdgeStyle;rounded=0;orthogonalLoop=1;jettySize=auto;html=1;" edge="1" parent="WIyWlLk6GJQsqaUBKTNV-1" source="_Q8CtAEHd_2Q4HWSlG2P-18" target="_Q8CtAEHd_2Q4HWSlG2P-38">
          <mxGeometry relative="1" as="geometry">
            <mxPoint x="520" y="625" as="targetPoint" />
          </mxGeometry>
        </mxCell>
        <mxCell id="_Q8CtAEHd_2Q4HWSlG2P-18" value="eNum&amp;lt;150" style="rhombus;whiteSpace=wrap;html=1;" vertex="1" parent="WIyWlLk6GJQsqaUBKTNV-1">
          <mxGeometry x="351" y="585" width="126" height="80" as="geometry" />
        </mxCell>
        <mxCell id="_Q8CtAEHd_2Q4HWSlG2P-22" value="true" style="edgeStyle=orthogonalEdgeStyle;rounded=0;orthogonalLoop=1;jettySize=auto;html=1;" edge="1" parent="WIyWlLk6GJQsqaUBKTNV-1" source="_Q8CtAEHd_2Q4HWSlG2P-19" target="_Q8CtAEHd_2Q4HWSlG2P-21">
          <mxGeometry relative="1" as="geometry" />
        </mxCell>
        <mxCell id="_Q8CtAEHd_2Q4HWSlG2P-30" value="false" style="edgeStyle=orthogonalEdgeStyle;rounded=0;orthogonalLoop=1;jettySize=auto;html=1;" edge="1" parent="WIyWlLk6GJQsqaUBKTNV-1" source="_Q8CtAEHd_2Q4HWSlG2P-19" target="_Q8CtAEHd_2Q4HWSlG2P-40">
          <mxGeometry relative="1" as="geometry">
            <mxPoint x="520" y="750" as="targetPoint" />
          </mxGeometry>
        </mxCell>
        <mxCell id="_Q8CtAEHd_2Q4HWSlG2P-19" value="eNum&amp;lt;100" style="rhombus;whiteSpace=wrap;html=1;" vertex="1" parent="WIyWlLk6GJQsqaUBKTNV-1">
          <mxGeometry x="351" y="710" width="126" height="80" as="geometry" />
        </mxCell>
        <mxCell id="_Q8CtAEHd_2Q4HWSlG2P-31" value="false" style="edgeStyle=orthogonalEdgeStyle;rounded=0;orthogonalLoop=1;jettySize=auto;html=1;" edge="1" parent="WIyWlLk6GJQsqaUBKTNV-1" source="_Q8CtAEHd_2Q4HWSlG2P-21" target="_Q8CtAEHd_2Q4HWSlG2P-41">
          <mxGeometry relative="1" as="geometry">
            <mxPoint x="520" y="880" as="targetPoint" />
          </mxGeometry>
        </mxCell>
        <mxCell id="_Q8CtAEHd_2Q4HWSlG2P-34" value="true" style="edgeStyle=orthogonalEdgeStyle;rounded=0;orthogonalLoop=1;jettySize=auto;html=1;" edge="1" parent="WIyWlLk6GJQsqaUBKTNV-1" source="_Q8CtAEHd_2Q4HWSlG2P-21" target="_Q8CtAEHd_2Q4HWSlG2P-32">
          <mxGeometry relative="1" as="geometry" />
        </mxCell>
        <mxCell id="_Q8CtAEHd_2Q4HWSlG2P-21" value="eNum&amp;lt;50" style="rhombus;whiteSpace=wrap;html=1;" vertex="1" parent="WIyWlLk6GJQsqaUBKTNV-1">
          <mxGeometry x="351" y="840" width="126" height="80" as="geometry" />
        </mxCell>
        <mxCell id="_Q8CtAEHd_2Q4HWSlG2P-36" style="edgeStyle=orthogonalEdgeStyle;rounded=0;orthogonalLoop=1;jettySize=auto;html=1;exitX=1;exitY=0.5;exitDx=0;exitDy=0;entryX=1;entryY=0.5;entryDx=0;entryDy=0;" edge="1" parent="WIyWlLk6GJQsqaUBKTNV-1" source="_Q8CtAEHd_2Q4HWSlG2P-38" target="_Q8CtAEHd_2Q4HWSlG2P-44">
          <mxGeometry relative="1" as="geometry">
            <mxPoint x="640" y="625" as="sourcePoint" />
            <Array as="points">
              <mxPoint x="760" y="625" />
              <mxPoint x="760" y="1130" />
              <mxPoint x="550" y="1130" />
            </Array>
          </mxGeometry>
        </mxCell>
        <mxCell id="_Q8CtAEHd_2Q4HWSlG2P-32" value="30*10000VND" style="rounded=0;whiteSpace=wrap;html=1;" vertex="1" parent="WIyWlLk6GJQsqaUBKTNV-1">
          <mxGeometry x="354" y="970" width="120" height="60" as="geometry" />
        </mxCell>
        <mxCell id="_Q8CtAEHd_2Q4HWSlG2P-37" value="30*30000VND" style="shape=parallelogram;perimeter=parallelogramPerimeter;whiteSpace=wrap;html=1;fixedSize=1;" vertex="1" parent="WIyWlLk6GJQsqaUBKTNV-1">
          <mxGeometry x="530" y="470" width="120" height="60" as="geometry" />
        </mxCell>
        <mxCell id="_Q8CtAEHd_2Q4HWSlG2P-38" value="30*25000VND" style="shape=parallelogram;perimeter=parallelogramPerimeter;whiteSpace=wrap;html=1;fixedSize=1;" vertex="1" parent="WIyWlLk6GJQsqaUBKTNV-1">
          <mxGeometry x="520" y="595" width="120" height="60" as="geometry" />
        </mxCell>
        <mxCell id="_Q8CtAEHd_2Q4HWSlG2P-42" style="edgeStyle=orthogonalEdgeStyle;rounded=0;orthogonalLoop=1;jettySize=auto;html=1;entryX=1;entryY=0.5;entryDx=0;entryDy=0;" edge="1" parent="WIyWlLk6GJQsqaUBKTNV-1" source="_Q8CtAEHd_2Q4HWSlG2P-40" target="_Q8CtAEHd_2Q4HWSlG2P-44">
          <mxGeometry relative="1" as="geometry">
            <Array as="points">
              <mxPoint x="760" y="760" />
              <mxPoint x="760" y="1130" />
            </Array>
          </mxGeometry>
        </mxCell>
        <mxCell id="_Q8CtAEHd_2Q4HWSlG2P-40" value="30*20000VND" style="shape=parallelogram;perimeter=parallelogramPerimeter;whiteSpace=wrap;html=1;fixedSize=1;" vertex="1" parent="WIyWlLk6GJQsqaUBKTNV-1">
          <mxGeometry x="520" y="730" width="120" height="60" as="geometry" />
        </mxCell>
        <mxCell id="_Q8CtAEHd_2Q4HWSlG2P-43" style="edgeStyle=orthogonalEdgeStyle;rounded=0;orthogonalLoop=1;jettySize=auto;html=1;exitX=1;exitY=0.5;exitDx=0;exitDy=0;entryX=1;entryY=0.5;entryDx=0;entryDy=0;" edge="1" parent="WIyWlLk6GJQsqaUBKTNV-1" source="_Q8CtAEHd_2Q4HWSlG2P-41" target="_Q8CtAEHd_2Q4HWSlG2P-44">
          <mxGeometry relative="1" as="geometry">
            <Array as="points">
              <mxPoint x="760" y="880" />
              <mxPoint x="760" y="1130" />
            </Array>
          </mxGeometry>
        </mxCell>
        <mxCell id="_Q8CtAEHd_2Q4HWSlG2P-41" value="30*15000VND" style="shape=parallelogram;perimeter=parallelogramPerimeter;whiteSpace=wrap;html=1;fixedSize=1;" vertex="1" parent="WIyWlLk6GJQsqaUBKTNV-1">
          <mxGeometry x="520" y="850" width="120" height="60" as="geometry" />
        </mxCell>
        <mxCell id="_Q8CtAEHd_2Q4HWSlG2P-44" value="End" style="ellipse;whiteSpace=wrap;html=1;" vertex="1" parent="WIyWlLk6GJQsqaUBKTNV-1">
          <mxGeometry x="354" y="1089" width="120" height="80" as="geometry" />
        </mxCell>
      </root>
    </mxGraphModel>
  </diagram>
</mxfile>
